<?xml version="1.0" encoding="utf-8"?>
<!-- Generator: Adobe Illustrator 23.0.2, SVG Export Plug-In . SVG Version: 6.00 Build 0)  -->
<svg version="1.1" id="Layer_2" xmlns="http://www.w3.org/2000/svg" xmlns:xlink="http://www.w3.org/1999/xlink" x="0px" y="0px"
	 viewBox="0 0 150 150" style="enable-background:new 0 0 150 150;" xml:space="preserve">
<style type="text/css">
	.st0{fill:#754F22;}
</style>
<path class="st0" d="M75,1C33.58,1,0,34.58,0,76c0,35.48,24.63,65.2,57.72,73c0.26,0.06,0.52,0.11,0.78,0.17V137.5c0,0-4,1-10,0
	s-10-4-13-7s-4-7-6-10s-4-5-7-7s-5-5-2-6s8-1,12,2s8,10,9,11s4,3,9,3s9-1,9-1s0-4,1-6s2-3,2-3s-17-1-26-12s-11-27-8-36s8-14,8-14
	s-4-3-2-12s2-10,2-10s8,1,11,2s13,6,13,6s11-2,19-2s20,2,20,2s6-4,13-6s10-1,10-1s1,2,2,8s-1,14-1,14s10,10,8,25s-5,23-15,29
	s-19,7-19,7s3,5,3,12c0,4.55,0,14.57,0,21.05C129.37,136.11,150,108.47,150,76C150,34.58,116.42,1,75,1z"/>
</svg>
